<?xml version="1.0" encoding="iso-8859-1"?>
<!-- Generator: Adobe Illustrator 19.0.0, SVG Export Plug-In . SVG Version: 6.00 Build 0)  -->
<svg version="1.1" id="Capa_1" xmlns="http://www.w3.org/2000/svg" xmlns:xlink="http://www.w3.org/1999/xlink" x="0px" y="0px"
	 viewBox="0 0 512 512" style="enable-background:new 0 0 512 512;" xml:space="preserve">
<path style="fill:#F8D77E;" d="M481.172,125H93.152c-10.656,0-20.556,5.538-26.182,14.646l-62.324,100.9
	c-6.238,10.098-6.191,22.896,0.119,32.949l62.177,99.05C72.591,381.544,82.429,387,93.005,387h388.167
	C498.198,387,512,373.11,512,355.975v-199.95C512,138.89,498.198,125,481.172,125z M82.405,276.63
	c-11.379,0-20.604-9.236-20.604-20.63c0-11.394,9.225-20.63,20.604-20.63s20.604,9.236,20.604,20.63
	C103.009,267.394,93.784,276.63,82.405,276.63z"/>
<path style="fill:#F7B357;" d="M481.172,125h-30.905c17.026,0,30.828,13.89,30.828,31.025v199.95
	c0,17.135-13.802,31.025-30.828,31.025h30.905C498.198,387,512,373.11,512,355.975v-199.95C512,138.89,498.198,125,481.172,125z"/>
<path style="fill:#FF5948;" d="M95.537,155.945c-1.428,0-2.754,0.74-3.505,1.956l-59.814,96.837
	c0.005,1.415,0.011,2.951,0.016,4.366l59.649,95.021c0.754,1.201,2.072,1.93,3.489,1.93h381.572c2.276,0,4.12-1.847,4.121-4.125
	l0.029-191.78c0-2.279-1.844-4.126-4.12-4.127L95.537,155.945z M96.97,271.506c-21.744,15.898-45.93-8.316-30.053-30.089
	c0.255-0.35,0.572-0.667,0.921-0.922c21.744-15.899,45.931,8.316,30.053,30.089C97.636,270.934,97.32,271.251,96.97,271.506z"/>
<g>
	<path style="fill:#F8D77E;" d="M191.537,308.862c-17.384,0-31.528-14.157-31.528-31.559c0-4.143,3.358-7.5,7.5-7.5
		s7.5,3.357,7.5,7.5c0,9.131,7.415,16.559,16.528,16.559s16.528-7.428,16.528-16.559s-7.415-16.559-16.528-16.559
		c-17.384,0-31.528-14.157-31.528-31.559s14.144-31.558,31.528-31.558s31.528,14.156,31.528,31.558c0,4.143-3.358,7.5-7.5,7.5
		s-7.5-3.357-7.5-7.5c0-9.13-7.415-16.558-16.528-16.558s-16.528,7.428-16.528,16.558c0,9.131,7.415,16.559,16.528,16.559
		c17.384,0,31.528,14.157,31.528,31.559S208.921,308.862,191.537,308.862z"/>
	<path style="fill:#F8D77E;" d="M257.82,308.863c-17.385,0-31.529-14.157-31.529-31.56V229.19c0-17.402,14.144-31.56,31.529-31.56
		s31.529,14.157,31.529,31.56v48.113C289.349,294.706,275.205,308.863,257.82,308.863z M257.82,212.631
		c-9.114,0-16.529,7.429-16.529,16.56v48.113c0,9.131,7.415,16.56,16.529,16.56s16.529-7.429,16.529-16.56V229.19
		C274.349,220.06,266.934,212.631,257.82,212.631z"/>
	<path style="fill:#F8D77E;" d="M348.135,308.863h-45.874c-5.339,0-9.684-4.346-9.684-9.687V205.13c0-4.143,3.358-7.5,7.5-7.5
		s7.5,3.357,7.5,7.5v88.732h40.558c4.142,0,7.5,3.357,7.5,7.5S352.277,308.863,348.135,308.863z"/>
	<path style="fill:#F8D77E;" d="M395.337,308.863h-28.974c-4.142,0-7.5-3.357-7.5-7.5v-96.232c0-4.143,3.358-7.5,7.5-7.5h28.974
		c14.655,0,26.578,11.934,26.578,26.603v58.027C421.916,296.93,409.993,308.863,395.337,308.863z M373.863,293.863h21.474
		c6.384,0,11.578-5.205,11.578-11.603v-58.027c0-6.397-5.194-11.603-11.578-11.603h-21.474V293.863z"/>
</g>
<g>
</g>
<g>
</g>
<g>
</g>
<g>
</g>
<g>
</g>
<g>
</g>
<g>
</g>
<g>
</g>
<g>
</g>
<g>
</g>
<g>
</g>
<g>
</g>
<g>
</g>
<g>
</g>
<g>
</g>
</svg>
